<mxfile host="app.diagrams.net" modified="2021-06-09T09:37:08.395Z" agent="5.0 (Windows NT 10.0; Win64; x64) AppleWebKit/537.36 (KHTML, like Gecko) Chrome/91.0.4472.77 Safari/537.36" etag="DiaExodb3gCgC-DpDuac" version="14.7.6" type="github">
  <diagram id="C5RBs43oDa-KdzZeNtuy" name="Page-1">
    <mxGraphModel dx="1038" dy="547" grid="1" gridSize="10" guides="1" tooltips="1" connect="1" arrows="1" fold="1" page="1" pageScale="1" pageWidth="827" pageHeight="1169" math="0" shadow="0">
      <root>
        <mxCell id="WIyWlLk6GJQsqaUBKTNV-0" />
        <mxCell id="WIyWlLk6GJQsqaUBKTNV-1" parent="WIyWlLk6GJQsqaUBKTNV-0" />
        <mxCell id="TRHpwo9jHyrGdc6Styyp-1" style="edgeStyle=orthogonalEdgeStyle;rounded=0;orthogonalLoop=1;jettySize=auto;html=1;entryX=0.5;entryY=0;entryDx=0;entryDy=0;" edge="1" parent="WIyWlLk6GJQsqaUBKTNV-1" source="TRHpwo9jHyrGdc6Styyp-2" target="TRHpwo9jHyrGdc6Styyp-5">
          <mxGeometry relative="1" as="geometry" />
        </mxCell>
        <mxCell id="TRHpwo9jHyrGdc6Styyp-2" value="START" style="rounded=1;whiteSpace=wrap;html=1;" vertex="1" parent="WIyWlLk6GJQsqaUBKTNV-1">
          <mxGeometry x="239.5" y="100" width="110" height="40" as="geometry" />
        </mxCell>
        <mxCell id="TRHpwo9jHyrGdc6Styyp-3" style="edgeStyle=orthogonalEdgeStyle;rounded=0;orthogonalLoop=1;jettySize=auto;html=1;entryX=0.5;entryY=0;entryDx=0;entryDy=0;" edge="1" parent="WIyWlLk6GJQsqaUBKTNV-1" source="TRHpwo9jHyrGdc6Styyp-5" target="TRHpwo9jHyrGdc6Styyp-6">
          <mxGeometry relative="1" as="geometry">
            <Array as="points">
              <mxPoint x="172.5" y="210" />
            </Array>
          </mxGeometry>
        </mxCell>
        <mxCell id="TRHpwo9jHyrGdc6Styyp-4" style="edgeStyle=orthogonalEdgeStyle;rounded=0;orthogonalLoop=1;jettySize=auto;html=1;entryX=0.5;entryY=0;entryDx=0;entryDy=0;" edge="1" parent="WIyWlLk6GJQsqaUBKTNV-1" source="TRHpwo9jHyrGdc6Styyp-5" target="TRHpwo9jHyrGdc6Styyp-11">
          <mxGeometry relative="1" as="geometry">
            <mxPoint x="417.5" y="260" as="targetPoint" />
            <Array as="points">
              <mxPoint x="427.5" y="210" />
            </Array>
          </mxGeometry>
        </mxCell>
        <mxCell id="TRHpwo9jHyrGdc6Styyp-5" value="Is it cleanly &lt;br&gt;divisible by 4?" style="rhombus;whiteSpace=wrap;html=1;" vertex="1" parent="WIyWlLk6GJQsqaUBKTNV-1">
          <mxGeometry x="227" y="170" width="135" height="80" as="geometry" />
        </mxCell>
        <mxCell id="TRHpwo9jHyrGdc6Styyp-6" value="Not Leap" style="rounded=1;whiteSpace=wrap;html=1;fillColor=#f8cecc;strokeColor=#b85450;" vertex="1" parent="WIyWlLk6GJQsqaUBKTNV-1">
          <mxGeometry x="117" y="260" width="110" height="40" as="geometry" />
        </mxCell>
        <mxCell id="TRHpwo9jHyrGdc6Styyp-7" value="No" style="text;html=1;align=center;verticalAlign=middle;resizable=0;points=[];autosize=1;" vertex="1" parent="WIyWlLk6GJQsqaUBKTNV-1">
          <mxGeometry x="189.5" y="190" width="30" height="20" as="geometry" />
        </mxCell>
        <mxCell id="TRHpwo9jHyrGdc6Styyp-8" value="Yes" style="text;html=1;align=center;verticalAlign=middle;resizable=0;points=[];autosize=1;" vertex="1" parent="WIyWlLk6GJQsqaUBKTNV-1">
          <mxGeometry x="369.5" y="190" width="40" height="20" as="geometry" />
        </mxCell>
        <mxCell id="TRHpwo9jHyrGdc6Styyp-9" style="edgeStyle=orthogonalEdgeStyle;rounded=0;orthogonalLoop=1;jettySize=auto;html=1;exitX=0;exitY=0.5;exitDx=0;exitDy=0;entryX=0.5;entryY=0;entryDx=0;entryDy=0;" edge="1" parent="WIyWlLk6GJQsqaUBKTNV-1" source="TRHpwo9jHyrGdc6Styyp-11" target="TRHpwo9jHyrGdc6Styyp-12">
          <mxGeometry relative="1" as="geometry" />
        </mxCell>
        <mxCell id="TRHpwo9jHyrGdc6Styyp-10" style="edgeStyle=orthogonalEdgeStyle;rounded=0;orthogonalLoop=1;jettySize=auto;html=1;exitX=1;exitY=0.5;exitDx=0;exitDy=0;entryX=0.5;entryY=0;entryDx=0;entryDy=0;" edge="1" parent="WIyWlLk6GJQsqaUBKTNV-1" source="TRHpwo9jHyrGdc6Styyp-11" target="TRHpwo9jHyrGdc6Styyp-15">
          <mxGeometry relative="1" as="geometry" />
        </mxCell>
        <mxCell id="TRHpwo9jHyrGdc6Styyp-11" value="Is it cleanly &lt;br&gt;divisible by 100?" style="rhombus;whiteSpace=wrap;html=1;" vertex="1" parent="WIyWlLk6GJQsqaUBKTNV-1">
          <mxGeometry x="362" y="260" width="130" height="80" as="geometry" />
        </mxCell>
        <mxCell id="TRHpwo9jHyrGdc6Styyp-12" value="Leap" style="rounded=1;whiteSpace=wrap;html=1;fillColor=#d5e8d4;strokeColor=#82b366;" vertex="1" parent="WIyWlLk6GJQsqaUBKTNV-1">
          <mxGeometry x="252" y="370" width="110" height="40" as="geometry" />
        </mxCell>
        <mxCell id="TRHpwo9jHyrGdc6Styyp-13" style="edgeStyle=orthogonalEdgeStyle;rounded=0;orthogonalLoop=1;jettySize=auto;html=1;exitX=0;exitY=0.5;exitDx=0;exitDy=0;entryX=0.5;entryY=0;entryDx=0;entryDy=0;" edge="1" parent="WIyWlLk6GJQsqaUBKTNV-1" source="TRHpwo9jHyrGdc6Styyp-15" target="TRHpwo9jHyrGdc6Styyp-21">
          <mxGeometry relative="1" as="geometry" />
        </mxCell>
        <mxCell id="TRHpwo9jHyrGdc6Styyp-14" style="edgeStyle=orthogonalEdgeStyle;rounded=0;orthogonalLoop=1;jettySize=auto;html=1;exitX=1;exitY=0.5;exitDx=0;exitDy=0;entryX=0.5;entryY=0;entryDx=0;entryDy=0;" edge="1" parent="WIyWlLk6GJQsqaUBKTNV-1" source="TRHpwo9jHyrGdc6Styyp-15" target="TRHpwo9jHyrGdc6Styyp-16">
          <mxGeometry relative="1" as="geometry" />
        </mxCell>
        <mxCell id="TRHpwo9jHyrGdc6Styyp-15" value="Is it cleanly &lt;br&gt;divisible by 400?" style="rhombus;whiteSpace=wrap;html=1;" vertex="1" parent="WIyWlLk6GJQsqaUBKTNV-1">
          <mxGeometry x="459.5" y="370" width="140" height="80" as="geometry" />
        </mxCell>
        <mxCell id="TRHpwo9jHyrGdc6Styyp-16" value="Leap" style="rounded=1;whiteSpace=wrap;html=1;fillColor=#d5e8d4;strokeColor=#82b366;" vertex="1" parent="WIyWlLk6GJQsqaUBKTNV-1">
          <mxGeometry x="599.5" y="490" width="110" height="40" as="geometry" />
        </mxCell>
        <mxCell id="TRHpwo9jHyrGdc6Styyp-17" value="Yes" style="text;html=1;align=center;verticalAlign=middle;resizable=0;points=[];autosize=1;" vertex="1" parent="WIyWlLk6GJQsqaUBKTNV-1">
          <mxGeometry x="492" y="280" width="40" height="20" as="geometry" />
        </mxCell>
        <mxCell id="TRHpwo9jHyrGdc6Styyp-18" value="No" style="text;html=1;align=center;verticalAlign=middle;resizable=0;points=[];autosize=1;" vertex="1" parent="WIyWlLk6GJQsqaUBKTNV-1">
          <mxGeometry x="319.5" y="280" width="30" height="20" as="geometry" />
        </mxCell>
        <mxCell id="TRHpwo9jHyrGdc6Styyp-19" value="No" style="text;html=1;align=center;verticalAlign=middle;resizable=0;points=[];autosize=1;" vertex="1" parent="WIyWlLk6GJQsqaUBKTNV-1">
          <mxGeometry x="419.5" y="390" width="30" height="20" as="geometry" />
        </mxCell>
        <mxCell id="TRHpwo9jHyrGdc6Styyp-20" value="Yes" style="text;html=1;align=center;verticalAlign=middle;resizable=0;points=[];autosize=1;" vertex="1" parent="WIyWlLk6GJQsqaUBKTNV-1">
          <mxGeometry x="599.5" y="390" width="40" height="20" as="geometry" />
        </mxCell>
        <mxCell id="TRHpwo9jHyrGdc6Styyp-21" value="Not Leap" style="rounded=1;whiteSpace=wrap;html=1;fillColor=#f8cecc;strokeColor=#b85450;" vertex="1" parent="WIyWlLk6GJQsqaUBKTNV-1">
          <mxGeometry x="349.5" y="490" width="110" height="40" as="geometry" />
        </mxCell>
      </root>
    </mxGraphModel>
  </diagram>
</mxfile>
